<svg width="18" height="18" viewBox="0 0 18 18" fill="none" xmlns="http://www.w3.org/2000/svg">
<g clip-path="url(#clip0_166_192)">
<path opacity="0.5" d="M15.6366 6.53481C15.9104 6.2609 16.1276 5.93574 16.2758 5.57788C16.424 5.22003 16.5003 4.83649 16.5002 4.44917C16.5002 4.06184 16.4239 3.67832 16.2756 3.32049C16.1274 2.96266 15.9101 2.63754 15.6362 2.36368C15.3623 2.08983 15.0371 1.8726 14.6793 1.72441C14.3214 1.57622 13.9379 1.49997 13.5505 1.5C12.7683 1.50007 12.0181 1.81088 11.4651 2.36406L10.7998 3.02931L10.8283 3.11256C11.1563 4.05071 11.693 4.90212 12.3981 5.60256C13.1193 6.32832 14.0002 6.87538 14.9706 7.20006L15.6366 6.53481Z" fill="#808080"/>
<path d="M10.8292 3L10.8 3.0285L10.8285 3.1125C11.1564 4.05065 11.6932 4.90207 12.3982 5.6025C13.1195 6.32826 14.0004 6.87533 14.9707 7.2L8.55073 13.62C8.11723 14.0527 7.90048 14.2695 7.66198 14.4555C7.38033 14.6747 7.07581 14.8628 6.75373 15.0165C6.48073 15.147 6.19048 15.2438 5.60923 15.4373L2.54698 16.458C2.40684 16.5049 2.25641 16.5119 2.11255 16.478C1.96869 16.4442 1.83711 16.371 1.73257 16.2665C1.62804 16.1621 1.55468 16.0305 1.52075 15.8867C1.48682 15.7429 1.49365 15.5924 1.54048 15.4523L2.56198 12.3892C2.75548 11.8087 2.85223 11.5185 2.98198 11.2455C3.13648 10.9225 3.32373 10.6195 3.54373 10.3365C3.72973 10.098 3.94648 9.882 4.37923 9.44925L10.8292 3Z" fill="#808080"/>
<path opacity="0.5" d="M4.119 3.03375L3.03375 4.119C2.0115 5.14125 1.5 5.65275 1.5 6.288C1.5 6.92325 2.0115 7.4355 3.03375 8.45775L4.20225 9.62625L4.37925 9.44925L9.62625 4.20225L8.45775 3.03375C7.43475 2.0115 6.9225 1.5 6.288 1.5C5.6535 1.5 5.14125 2.0115 4.119 3.03375ZM13.797 8.373L8.55 13.62L8.373 13.797L9.543 14.9662C10.5645 15.9885 11.0752 16.5 11.7113 16.5C12.3472 16.5 12.858 15.9885 13.8802 14.9662L14.9655 13.881C15.9885 12.8587 16.5 12.3472 16.5 11.712C16.5 11.076 15.9885 10.5645 14.9662 9.54225L13.797 8.373Z" fill="#808080"/>
<path d="M15.0819 9.65747L14.2044 10.535C14.1051 10.6417 14.0511 10.7828 14.0538 10.9285C14.0565 11.0742 14.1157 11.2132 14.2189 11.3162C14.322 11.4191 14.4611 11.478 14.6069 11.4805C14.7526 11.4829 14.8936 11.4287 15.0001 11.3292L15.8626 10.4667C15.6096 10.1898 15.3493 9.92045 15.0819 9.65747ZM7.32461 1.95947L6.32936 2.95397C6.27711 3.00622 6.23566 3.06825 6.20738 3.13652C6.17911 3.20479 6.16455 3.27796 6.16455 3.35185C6.16455 3.42574 6.17911 3.49891 6.20738 3.56718C6.23566 3.63544 6.27711 3.69747 6.32936 3.74972C6.38161 3.80197 6.44364 3.84342 6.5119 3.8717C6.58017 3.89997 6.65334 3.91453 6.72723 3.91453C6.80112 3.91453 6.87429 3.89997 6.94256 3.8717C7.01083 3.84342 7.07286 3.80197 7.12511 3.74972L8.14886 2.72672C7.88682 2.45761 7.61148 2.20179 7.32386 1.96022" fill="#808080"/>
</g>
<defs>
<clipPath id="clip0_166_192">
<rect width="18" height="18" fill="white"/>
</clipPath>
</defs>
</svg>
