<svg width="18" height="18" viewBox="0 0 18 18" fill="none" xmlns="http://www.w3.org/2000/svg">
<g clip-path="url(#clip0_166_179)">
<path opacity="0.5" d="M3.7034 2.6895C3.26465 3.129 3.26465 3.8355 3.26465 5.25V10.5H14.7351V5.25C14.7351 3.8355 14.7351 3.129 14.2956 2.6895C13.8561 2.25 13.1489 2.25 11.7351 2.25H6.26465C4.85015 2.25 4.1429 2.25 3.7034 2.6895Z" fill="#7F7F7F"/>
<path fill-rule="evenodd" clip-rule="evenodd" d="M16.0433 12.252L16.1093 12.321C16.3498 12.5853 16.4881 12.9268 16.4993 13.284L16.5 13.3793C16.5 13.4918 16.5 13.5472 16.497 13.5945C16.474 13.9589 16.3188 14.3024 16.0606 14.5606C15.8024 14.8188 15.4589 14.974 15.0945 14.997C15.0228 15.0001 14.951 15.0011 14.8793 15H3.12075C3.00825 15 2.95275 15 2.9055 14.997C2.54108 14.974 2.19756 14.8188 1.93936 14.5606C1.68116 14.3024 1.52601 13.9589 1.503 13.5945C1.5 13.5472 1.5 13.491 1.5 13.38L1.50075 13.2847C1.51188 12.9275 1.65018 12.586 1.89075 12.3218L1.95675 12.2527L2.92725 11.25H15.0728L16.0433 12.252ZM6.5625 13.5C6.5625 13.3508 6.62176 13.2077 6.72725 13.1023C6.83274 12.9968 6.97582 12.9375 7.125 12.9375H10.875C11.0242 12.9375 11.1673 12.9968 11.2727 13.1023C11.3782 13.2077 11.4375 13.3508 11.4375 13.5C11.4375 13.6492 11.3782 13.7923 11.2727 13.8977C11.1673 14.0032 11.0242 14.0625 10.875 14.0625H7.125C6.97582 14.0625 6.83274 14.0032 6.72725 13.8977C6.62176 13.7923 6.5625 13.6492 6.5625 13.5Z" fill="#7F7F7F"/>
<path d="M9.5625 4.3125C9.5625 4.46168 9.50324 4.60476 9.39775 4.71025C9.29226 4.81574 9.14918 4.875 9 4.875C8.85082 4.875 8.70774 4.81574 8.60225 4.71025C8.49676 4.60476 8.4375 4.46168 8.4375 4.3125C8.4375 4.16332 8.49676 4.02024 8.60225 3.91475C8.70774 3.80926 8.85082 3.75 9 3.75C9.14918 3.75 9.29226 3.80926 9.39775 3.91475C9.50324 4.02024 9.5625 4.16332 9.5625 4.3125Z" fill="#7F7F7F"/>
</g>
<defs>
<clipPath id="clip0_166_179">
<rect width="18" height="18" fill="white"/>
</clipPath>
</defs>
</svg>
