<svg width="100" height="100" viewBox="0 0 100 100" fill="none" xmlns="http://www.w3.org/2000/svg">
<path d="M11.0312 8.9043C11.9511 8.9062 12.9629 9.0227 14.0576 9.25C14.9589 9.43699 15.9165 9.69804 16.9248 10.0312C16.9336 10.0342 16.9424 10.0371 16.9512 10.04C17.3418 10.1695 17.7399 10.3102 18.1455 10.4609C18.8281 10.7147 19.5312 10.9988 20.2539 11.3115C30.7086 15.8348 45.2093 26.4446 59.4346 40.6699C75.5878 56.8232 87.0781 73.3311 90.2891 83.8672C90.2995 83.9014 90.31 83.9356 90.3203 83.9697C90.7746 85.4803 91.0571 86.8668 91.1572 88.1104L91.1865 88.5762C91.2822 90.7162 90.8019 92.3992 89.6807 93.5205C87.0509 96.1503 81.3296 95.2683 73.8721 91.6514C66.8408 95.69 58.6903 98 50 98C38.4285 98 27.8143 93.9043 19.5254 87.085L31.4297 76.6367C32.1549 76.7942 32.9073 76.8799 33.6797 76.8799C39.5117 76.8799 44.2401 72.1523 44.2402 66.3203C44.2402 60.4882 39.5118 55.7598 33.6797 55.7598C27.8477 55.7599 23.1201 60.4883 23.1201 66.3203C23.1201 67.2283 23.2347 68.1094 23.4502 68.9502L13.1191 80.7197C6.17785 72.3954 2 61.6861 2 50C2 41.2886 4.32016 33.119 8.37695 26.0762C4.82302 18.6948 3.97096 13.0346 6.58203 10.4229C7.53322 9.47166 8.88895 8.98111 10.585 8.91211V8.91309C10.7312 8.90711 10.88 8.90401 11.0312 8.9043ZM50 2C59.0925 2 67.5939 4.52921 74.8408 8.9209C76.9537 6.44879 80.0927 4.88 83.5996 4.87988C89.9619 4.87988 95.1201 10.0381 95.1201 16.4004C95.12 19.9073 93.5503 23.0454 91.0781 25.1582C95.4702 32.4054 98 40.907 98 50C98 58.0358 96.0224 65.6085 92.5312 72.2627C85.9325 60.1711 76.4284 47.4812 64.5254 35.5781C52.5735 23.6263 39.8286 14.0931 27.6924 7.49121C34.3573 3.98562 41.9463 2 50 2Z" fill="url(#paint0_radial_192_97)"/>
<defs>
<radialGradient id="paint0_radial_192_97" cx="0" cy="0" r="1" gradientUnits="userSpaceOnUse" gradientTransform="translate(50 50) rotate(90) scale(48)">
<stop stop-color="#70BBFF"/>
<stop offset="1" stop-color="#0083FA"/>
</radialGradient>
</defs>
</svg>
