<svg width="18" height="18" viewBox="0 0 18 18" fill="none" xmlns="http://www.w3.org/2000/svg">
<g clip-path="url(#clip0_167_219)">
<path d="M8.6087 0.137853C8.71957 0.0486396 8.8576 0 8.9999 0C9.1422 0 9.28023 0.0486396 9.3911 0.137853L10.8047 1.27785L12.5843 0.849453C12.7221 0.815459 12.8673 0.829807 12.9958 0.890097C13.1242 0.950387 13.228 1.05296 13.2899 1.18065L14.0579 2.80665L15.8507 3.17505C16.1387 3.23505 16.3439 3.48465 16.3391 3.77265L16.3067 5.56305L17.7599 6.65505C17.8731 6.73806 17.9528 6.85881 17.9847 6.99547C18.0166 7.13214 17.9986 7.27571 17.9339 7.40025L17.1119 8.99985L17.9351 10.5995C17.9995 10.7239 18.0173 10.8672 17.9854 11.0036C17.9535 11.14 17.874 11.2605 17.7611 11.3435L16.8899 11.9999H13.9163C13.8366 12.0008 13.7574 11.986 13.6834 11.9564C13.6093 11.9268 13.5419 11.8828 13.4848 11.8271C13.4278 11.7714 13.3823 11.705 13.3509 11.6317C13.3195 11.5584 13.3028 11.4796 13.3019 11.3999C13.3012 10.9735 13.2085 10.5523 13.0302 10.1651C12.8519 9.77782 12.5922 9.43358 12.2687 9.15585C12.8939 8.72025 13.3007 8.00625 13.3007 7.19985C13.3007 5.87385 12.2015 4.79985 10.8443 4.79985H1.6787L1.6607 3.77265C1.6588 3.6315 1.70673 3.49421 1.79606 3.3849C1.88539 3.2756 2.0104 3.2013 2.1491 3.17505L3.9431 2.80665L4.7099 1.18065C4.77176 1.05296 4.8756 0.950387 5.00405 0.890097C5.13249 0.829807 5.27774 0.815459 5.4155 0.849453L7.1951 1.27785L8.6087 0.137853Z" fill="#808080"/>
<path d="M1.11093 6L0.239728 6.6552C0.126566 6.73821 0.0468253 6.85895 0.0149144 6.99562C-0.0169965 7.13229 0.00102674 7.27586 0.0657276 7.4004L0.887728 9L0.0657276 10.5996C0.00135575 10.724 -0.0164867 10.8673 0.0154128 11.0037C0.0473122 11.1401 0.126858 11.2606 0.239728 11.3436L1.11093 12H4.69893V6H1.11093Z" fill="#808080"/>
<path opacity="0.5" d="M1.6799 13.2L1.6607 14.2272C1.6588 14.3683 1.70673 14.5056 1.79606 14.6149C1.88539 14.7242 2.0104 14.7986 2.1491 14.8248L3.9431 15.1932L4.7099 16.8192C4.8335 17.0808 5.1299 17.22 5.4155 17.1504L7.1951 16.722L8.6087 17.862C8.71956 17.9512 8.85759 17.9999 8.9999 17.9999C9.1422 17.9999 9.28023 17.9512 9.3911 17.862L10.8047 16.722L12.5843 17.1504C12.7221 17.1844 12.8673 17.17 12.9958 17.1098C13.1242 17.0495 13.228 16.9469 13.2899 16.8192L14.0579 15.1932L15.8507 14.8248C15.989 14.7977 16.1134 14.7231 16.2026 14.614C16.2918 14.5049 16.3401 14.3681 16.3391 14.2272L16.3199 13.2H13.9139C12.8963 13.2 12.0707 12.3936 12.0707 11.4C12.0707 10.4064 11.2463 9.6 10.2287 9.6H5.9279V12H8.3855V13.2H1.6799ZM10.8431 8.4H5.9279V6H10.8431C11.5211 6 12.0719 6.5376 12.0719 7.2C12.0719 7.8624 11.5199 8.4 10.8431 8.4Z" fill="#808080"/>
</g>
<defs>
<clipPath id="clip0_167_219">
<rect width="18" height="18" fill="white"/>
</clipPath>
</defs>
</svg>
